<?xml version="1.0" encoding="utf-8"?>
<!-- Generator: Adobe Illustrator 19.0.0, SVG Export Plug-In . SVG Version: 6.00 Build 0)  -->
<svg version="1.1" id="Layer_1" xmlns="http://www.w3.org/2000/svg" xmlns:xlink="http://www.w3.org/1999/xlink" x="0px" y="0px"
	 viewBox="0 0 212.5 67.1" style="enable-background:new 0 0 212.5 67.1;" xml:space="preserve">
<path id="XMLID_5_" d="M92.3,48.1H58.3c0.8,6.6,6.2,10.7,13.1,10.7c4.9,0,9.5-2.2,11.7-6.2l7.7,3.4c-3.7,7.3-11.3,11-19.8,11
	c-6.2,0-11.5-2.1-15.7-6.2s-6.3-9.5-6.3-16.2s2.1-12,6.3-16.1c4.2-4.1,9.5-6.2,15.7-6.2s11.4,2,15.4,6.2c4,4,6.1,9.4,6.1,16.1
	C92.4,46.4,92.4,47.5,92.3,48.1z M83.2,41.2c-0.8-6.6-5.7-10.6-12.2-10.6c-6.7,0-11.8,4-12.7,10.6H83.2z"/>
<path id="XMLID_12_" d="M158.8,6c0,3.4-2.7,6-6.2,6c-3.4,0-6.3-2.7-6.3-6s2.9-6,6.3-6C156.1,0,158.8,2.6,158.8,6z"/>
<rect id="XMLID_11_" x="147.9" y="23.3" width="9.4" height="42.9"/>
<path id="XMLID_8_" d="M22.6,22.4c-1.3,0-2.7,0.2-4.1,0.5v8.9c0.6-0.1,1.3-0.1,2-0.1c5.5,0,9,3.9,9,10.6v23.9h9.5v-25
	C38.9,29.1,33,22.4,22.6,22.4z"/>
<rect id="XMLID_9_" y="23.3" width="9.1" height="42.9"/>
<polygon id="XMLID_10_" points="109.8,23.3 98.6,23.3 106.8,34.7 112.3,27 "/>
<polygon id="XMLID_16_" points="123.5,42.8 137.5,23.3 126.4,23.3 121.8,29.7 118,35.2 118,35.1 112.6,42.8 112.6,42.8 112.5,43 
	96.1,66.2 106.7,66.2 118,50.5 129.2,66.2 140.3,66.2 "/>
<path id="XMLID_13_" d="M206,28.5c4.3,4.1,6.5,9.5,6.5,16.1s-2.2,12-6.6,16.2c-4.3,4.1-9.6,6.2-15.9,6.2s-11.6-2.1-15.9-6.2
	c-4.3-4.2-6.4-9.6-6.4-16.2s2.1-11.9,6.4-16.1s9.6-6.2,15.9-6.2C196.3,22.4,201.7,24.4,206,28.5z M199.3,54.3
	c2.5-2.5,3.8-5.7,3.8-9.6c0-7.7-5.7-12.9-13-12.9c-3.6,0-6.7,1.2-9.2,3.6s-3.8,5.5-3.8,9.4c0,3.9,1.3,7.2,3.8,9.6s5.6,3.7,9.2,3.7
	C193.7,57.9,196.8,56.7,199.3,54.3z"/>
</svg>
