<?xml version="1.0" encoding="iso-8859-1"?>
<!-- Generator: Adobe Illustrator 24.1.1, SVG Export Plug-In . SVG Version: 6.00 Build 0)  -->
<svg version="1.1" id="Layer_1" xmlns="http://www.w3.org/2000/svg" xmlns:xlink="http://www.w3.org/1999/xlink" x="0px" y="0px"
	 viewBox="0 0 28.672 28.696" style="enable-background:new 0 0 28.672 28.696;" xml:space="preserve">
<path d="M20.393,14.361l2.133-2.133c0.247-0.247,0.247-0.635,0-0.882c-0.247-0.247-0.635-0.247-0.882,0l-2.133,2.133l-1.693-1.693
	l2.133-2.133c0.247-0.247,0.247-0.635,0-0.882c-0.247-0.247-0.635-0.247-0.882,0l-2.151,2.116l-1.693-1.693l2.151-2.133
	c0.247-0.247,0.247-0.635,0-0.882c-0.247-0.247-0.635-0.247-0.882,0l-2.151,2.133l-2.133-2.151c-0.247-0.247-0.635-0.247-0.882,0
	c-0.247,0.247-0.247,0.635,0,0.882l2.133,2.151l-1.693,1.693L9.62,8.754c-0.247-0.247-0.635-0.247-0.882,0
	c-0.247,0.247-0.247,0.635,0,0.882l2.133,2.133l-1.693,1.71l-2.133-2.151c-0.247-0.247-0.635-0.247-0.882,0
	c-0.247,0.247-0.247,0.635,0,0.882l2.133,2.151l-2.151,2.133c-0.247,0.247-0.247,0.635,0,0.882c0.123,0.123,0.282,0.176,0.441,0.176
	s0.317-0.053,0.441-0.176l2.151-2.133l1.693,1.693l-2.133,2.151c-0.247,0.247-0.247,0.635,0,0.882
	c0.123,0.123,0.282,0.176,0.441,0.176c0.159,0,0.317-0.053,0.441-0.176l2.133-2.133l1.693,1.693l-2.133,2.133
	c-0.247,0.247-0.247,0.635,0,0.882c0.123,0.123,0.282,0.176,0.441,0.176c0.159,0,0.317-0.053,0.441-0.176l2.151-2.133l2.133,2.133
	c0.123,0.123,0.282,0.176,0.441,0.176c0.159,0,0.317-0.053,0.441-0.176c0.247-0.247,0.247-0.635,0-0.882l-2.133-2.133l1.693-1.693
	l2.133,2.133c0.123,0.123,0.282,0.176,0.441,0.176s0.317-0.053,0.441-0.176c0.247-0.247,0.247-0.635,0-0.882l-2.116-2.151
	l1.693-1.693l2.133,2.133c0.123,0.123,0.282,0.176,0.441,0.176c0.159,0,0.317-0.053,0.441-0.176c0.247-0.247,0.247-0.635,0-0.882
	L20.393,14.361z M14.345,10.077l1.693,1.693l-1.693,1.71l-1.693-1.693L14.345,10.077z M10.06,14.361l1.693-1.693l1.71,1.693
	l-1.693,1.693L10.06,14.361z M14.345,18.646l-1.693-1.693l1.693-1.71l1.693,1.693L14.345,18.646z M16.919,16.054l-1.693-1.693
	l1.693-1.693l1.693,1.693L16.919,16.054z"/>
<g>
</g>
<g>
</g>
<g>
</g>
<g>
</g>
<g>
</g>
<g>
</g>
<g>
</g>
<g>
</g>
<g>
</g>
<g>
</g>
<g>
</g>
<g>
</g>
<g>
</g>
<g>
</g>
<g>
</g>
</svg>
