<?xml version="1.0" encoding="iso-8859-1"?>
<!-- Generator: Adobe Illustrator 24.1.1, SVG Export Plug-In . SVG Version: 6.00 Build 0)  -->
<svg version="1.1" id="Layer_1" xmlns="http://www.w3.org/2000/svg" xmlns:xlink="http://www.w3.org/1999/xlink" x="0px" y="0px"
	 viewBox="0 0 28.672 28.696" style="enable-background:new 0 0 28.672 28.696;" xml:space="preserve">
<g>
	<path d="M6.17,13.227c0-1.751,1.247-3.263,3.227-3.263c1.991,0,3.238,1.512,3.238,3.263s-1.247,3.25-3.238,3.25
		C7.417,16.477,6.17,14.978,6.17,13.227z M9.396,15.218c1.043,0,1.811-0.792,1.811-1.991c0-1.211-0.768-2.003-1.811-2.003
		c-1.031,0-1.799,0.792-1.799,2.003C7.597,14.426,8.365,15.218,9.396,15.218z"/>
	<path d="M17.884,18.732h-5.997v-1.331h5.997V18.732z"/>
	<path d="M17.261,14.342h1.38c0.036,0.54,0.468,0.96,1.343,0.96c0.744,0,1.151-0.276,1.151-0.708c0-1.319-3.574-0.144-3.574-2.675
		c0-1.043,0.936-1.955,2.471-1.955c1.787,0,2.387,1.224,2.447,2.063h-1.367c-0.048-0.444-0.384-0.899-1.115-0.899
		c-0.708,0-1.067,0.287-1.067,0.743c0,1.212,3.573,0.145,3.573,2.663c0,1.055-0.863,1.942-2.603,1.942
		C18.078,16.477,17.333,15.482,17.261,14.342z"/>
</g>
<g>
</g>
<g>
</g>
<g>
</g>
<g>
</g>
<g>
</g>
<g>
</g>
<g>
</g>
<g>
</g>
<g>
</g>
<g>
</g>
<g>
</g>
<g>
</g>
<g>
</g>
<g>
</g>
<g>
</g>
</svg>
