<?xml version="1.0" encoding="utf-8"?>
<!-- Generator: Adobe Illustrator 23.0.4, SVG Export Plug-In . SVG Version: 6.00 Build 0)  -->
<svg version="1.1" id="Capa_1" xmlns="http://www.w3.org/2000/svg" xmlns:xlink="http://www.w3.org/1999/xlink" x="0px" y="0px"
	 viewBox="0 0 34 35" style="enable-background:new 0 0 34 35;" xml:space="preserve">
<style type="text/css">
	.st0{fill:none;stroke:#808080;stroke-width:1.5453;stroke-linecap:round;stroke-linejoin:round;stroke-miterlimit:10;}
</style>
<g>
	<g>
		<path class="st0" d="M9.3,5.29c-4.58,0-8.3,3.72-8.3,8.3c0,1.27,0.31,2.52,0.91,3.71c0.02,0.1,0.06,0.2,0.11,0.28l0.2,0.31
			c0.12,0.2,0.25,0.39,0.37,0.55l6.06,9.19c0.14,0.22,0.39,0.35,0.65,0.35c0.26,0,0.51-0.13,0.65-0.35l6.1-9.23
			c0.09-0.13,0.17-0.26,0.25-0.37l0.21-0.32c0.05-0.08,0.09-0.17,0.1-0.26c0.65-1.23,0.98-2.52,0.98-3.85
			C17.6,9.01,13.88,5.29,9.3,5.29z"/>
		<path class="st0" d="M12.66,13.56c0,1.85-1.5,3.35-3.35,3.35s-3.35-1.5-3.35-3.35c0-1.85,1.5-3.36,3.35-3.36
			S12.66,11.71,12.66,13.56z"/>
	</g>
	<g>
		<path class="st0" d="M21.79,20.57c-0.11,0.22,7.86,1.58,7.86-7.86"/>
		<polyline class="st0" points="25.2,15.8 29.67,11.75 33,16.78 		"/>
	</g>
</g>
</svg>
