<?xml version="1.0" encoding="utf-8"?>
<!-- Generator: Adobe Illustrator 23.0.4, SVG Export Plug-In . SVG Version: 6.00 Build 0)  -->
<svg version="1.1" id="Capa_1" xmlns="http://www.w3.org/2000/svg" xmlns:xlink="http://www.w3.org/1999/xlink" x="0px" y="0px"
	 viewBox="0 0 34 35" style="enable-background:new 0 0 34 35;" xml:space="preserve">
<style type="text/css">
	.st0{fill:none;}
	.st1{fill:#808080;}
</style>
<g>
	<polygon class="st0" points="6.3,15.88 3.48,17.54 10.11,21.42 12.92,19.77 	"/>
	<polygon class="st0" points="10.84,22.72 10.84,30.04 17.28,26.27 17.28,18.94 	"/>
	<polygon class="st0" points="14.39,18.91 16.57,17.63 16.38,17.33 10.11,13.65 7.77,15.02 	"/>
	<polygon class="st0" points="9.37,22.71 2.94,18.94 2.94,26.27 9.37,30.04 	"/>
	<path class="st0" d="M22.47,4.14c-3.84,0-6.96,3.17-6.96,7.07c0,1.08,0.26,2.14,0.76,3.16c0.03,0.06,0.05,0.13,0.07,0.2l0.18,0.28
		c0.12,0.19,0.22,0.36,0.32,0.49l0.57,0.88l0.97,0.57c0.23,0.13,0.37,0.38,0.37,0.65v0.84l3.73,5.75l5.63-8.7
		c0.09-0.13,0.16-0.23,0.21-0.32l0.22-0.33c0.01-0.07,0.03-0.12,0.06-0.18c0.55-1.05,0.83-2.15,0.83-3.27
		C29.43,7.31,26.31,4.14,22.47,4.14z M22.47,15.09c-2.12,0-3.85-1.75-3.85-3.91c0-2.16,1.73-3.91,3.85-3.91
		c2.12,0,3.85,1.75,3.85,3.91C26.32,13.33,24.59,15.09,22.47,15.09z"/>
	<path class="st0" d="M22.47,8.77c-1.31,0-2.37,1.08-2.37,2.41c0,1.33,1.07,2.41,2.37,2.41c1.31,0,2.37-1.08,2.37-2.41
		C24.85,9.85,23.78,8.77,22.47,8.77z"/>
	<path class="st1" d="M22.47,2.65c-4.65,0-8.43,3.84-8.43,8.56c0,1.19,0.27,2.35,0.77,3.47l-4.33-2.54c-0.23-0.13-0.51-0.13-0.74,0
		l-7.91,4.64c-0.23,0.13-0.37,0.38-0.37,0.65v9.28c0,0.27,0.14,0.51,0.37,0.65l7.91,4.64c0.01,0.01,0.02,0,0.03,0.01
		c0.1,0.05,0.21,0.09,0.33,0.09c0.12,0,0.23-0.04,0.33-0.09c0.01-0.01,0.02,0,0.03-0.01l7.91-4.64c0.23-0.13,0.37-0.38,0.37-0.65
		v-5.72l2.51,3.86c0.27,0.42,0.72,0.66,1.22,0.66c0.49,0,0.95-0.25,1.22-0.66l5.63-8.67c0.09-0.12,0.17-0.25,0.25-0.38l0.2-0.31
		c0.07-0.12,0.13-0.24,0.17-0.38c0.63-1.25,0.96-2.55,0.96-3.89C30.9,6.49,27.12,2.65,22.47,2.65z M10.11,13.65l6.28,3.68l0.19,0.3
		l-2.18,1.28l-6.62-3.89L10.11,13.65z M10.11,21.42l-6.62-3.88l2.82-1.65l6.62,3.89L10.11,21.42z M2.94,18.94l6.43,3.77v7.33
		l-6.43-3.77V18.94z M10.84,30.04v-7.33l6.44-3.77v7.33L10.84,30.04z M28.61,14.48c-0.03,0.06-0.05,0.12-0.06,0.18L28.33,15
		c-0.06,0.09-0.12,0.19-0.21,0.32l-5.63,8.7l-3.73-5.75v-0.84c0-0.27-0.14-0.51-0.37-0.65l-0.97-0.57l-0.57-0.88
		c-0.1-0.13-0.2-0.3-0.32-0.49l-0.18-0.28c-0.01-0.07-0.04-0.14-0.07-0.2c-0.51-1.02-0.76-2.08-0.76-3.16c0-3.9,3.12-7.07,6.96-7.07
		c3.84,0,6.96,3.17,6.96,7.07C29.43,12.33,29.16,13.43,28.61,14.48z"/>
	<path class="st1" d="M22.47,7.27c-2.12,0-3.85,1.75-3.85,3.91c0,2.15,1.73,3.91,3.85,3.91c2.12,0,3.85-1.75,3.85-3.91
		C26.32,9.02,24.59,7.27,22.47,7.27z M22.47,13.59c-1.31,0-2.37-1.08-2.37-2.41c0-1.33,1.07-2.41,2.37-2.41
		c1.31,0,2.37,1.08,2.37,2.41C24.85,12.51,23.78,13.59,22.47,13.59z"/>
</g>
</svg>
